<svg aria-hidden="true" style="position: absolute; width: 0; height: 0; overflow: hidden;" version="1.1" xmlns="http://www.w3.org/2000/svg" xmlns:xlink="http://www.w3.org/1999/xlink">
<defs>
<symbol id="close-menu" viewBox="0 0 32 32">
<path fill="none" stroke="#240532" style="stroke: var(--color1, #240532)" stroke-linejoin="miter" stroke-linecap="round" stroke-miterlimit="4" stroke-width="2.4615" d="M2.462 2.462l26.11 27.077M29.538 2.462l-26.11 27.077"></path>
</symbol>
<symbol id="heart" viewBox="0 0 32 32">
<path fill="#240532" style="fill: var(--color1, #240532)" d="M16 30.545l-2.32-2.093c-8.24-7.404-13.68-12.301-13.68-18.278 0-4.899 3.872-8.72 8.8-8.72 2.784 0 5.456 1.284 7.2 3.297 1.744-2.013 4.416-3.297 7.2-3.297 4.928 0 8.8 3.821 8.8 8.72 0 5.977-5.44 10.874-13.68 18.278l-2.32 2.093z"></path>
</symbol>
<symbol id="like" viewBox="0 0 32 32">
<path fill="#240532" style="fill: var(--color1, #240532)" d="M0.157 13.082c-0.094 0.781-0.157 1.574-0.157 2.382 0 7.090 3.731 13.264 9.256 16.536l1.032-2.264v-15.462l-1.144-1.192h-8.987zM32 14.274c0-1.192-1.144-2.382-2.288-2.382h-9.144c0.57-2.381 1.144-4.755 1.144-5.946 0-2.381-1.144-4.755-1.712-5.354-0.013-0.013-0.568-0.592-1.712-0.592-1.712 0-1.712 1.782-1.712 1.782 0 0.032-0.57 2.973-0.57 4.163s-2.288 5.946-3.432 7.136l-1.142 0.592v16.656l1.142 0.592h12.57c2.288 0 3.43-1.192 3.43-2.382s-1.144-2.381-2.288-2.381c2.288 0 3.432-1.19 3.432-2.381s-1.144-2.381-2.288-2.381c2.288 0 3.432-1.19 3.432-2.382 0-1.19-1.144-2.381-2.288-2.381 2.282 0.022 3.426-1.17 3.426-2.36z"></path>
</symbol>
<symbol id="logo-figma" viewBox="0 0 32 32">
<path fill="#918299" style="fill: var(--color2, #918299)" d="M15.994 16.006c0-2.94 2.438-5.335 5.457-5.335 3.007 0 5.457 2.384 5.457 5.335 0 2.94-2.438 5.335-5.457 5.335-3.008 0-5.457-2.396-5.457-5.335z"></path>
<path fill="#828282" style="fill: var(--color3, #828282)" d="M5.091 26.665c0-2.94 2.438-5.335 5.457-5.335h5.457v5.335c0 2.94-2.438 5.335-5.457 5.335s-5.457-2.385-5.457-5.335z"></path>
<path fill="#55587b" style="fill: var(--color4, #55587b)" d="M15.994 0.012v10.659h5.457c3.007 0 5.457-2.383 5.457-5.335 0-2.94-2.438-5.335-5.457-5.335h-5.457v0.012z"></path>
<path fill="#626085" style="fill: var(--color5, #626085)" d="M5.091 5.347c0 2.94 2.438 5.335 5.457 5.335h5.457v-10.671h-5.457c-3.020 0-5.457 2.384-5.457 5.335z"></path>
<path fill="#8d8494" style="fill: var(--color6, #8d8494)" d="M5.091 16.006c0 2.94 2.438 5.335 5.457 5.335h5.457v-10.671h-5.457c-3.020 0-5.457 2.396-5.457 5.335z"></path>
</symbol>
<symbol id="minus" viewBox="0 0 32 32">
<path fill="none" stroke="#827089" style="stroke: var(--color7, #827089)" stroke-linejoin="miter" stroke-linecap="butt" stroke-miterlimit="4" stroke-width="1.0667" d="M0.533 16c0 8.542 6.925 15.467 15.467 15.467s15.467-6.925 15.467-15.467c0-8.542-6.925-15.467-15.467-15.467s-15.467 6.925-15.467 15.467z"></path>
<path fill="none" stroke="#827089" style="stroke: var(--color7, #827089)" stroke-linejoin="miter" stroke-linecap="round" stroke-miterlimit="4" stroke-width="1.0667" d="M6.4 16h19.2"></path>
</symbol>
<symbol id="mobile-menu" viewBox="0 0 32 32">
<path fill="none" stroke="#240532" style="stroke: var(--color1, #240532)" stroke-linejoin="miter" stroke-linecap="round" stroke-miterlimit="4" stroke-width="2" d="M1 8.5h30M1 16h30M1 23.5h30"></path>
</symbol>
<symbol id="plus" viewBox="0 0 32 32">
<path fill="none" stroke="#827089" style="stroke: var(--color7, #827089)" stroke-linejoin="miter" stroke-linecap="butt" stroke-miterlimit="4" stroke-width="1.0667" d="M0.533 16c0 8.542 6.925 15.467 15.467 15.467s15.467-6.925 15.467-15.467c0-8.542-6.925-15.467-15.467-15.467s-15.467 6.925-15.467 15.467z"></path>
<path fill="none" stroke="#827089" style="stroke: var(--color7, #827089)" stroke-linejoin="miter" stroke-linecap="round" stroke-miterlimit="4" stroke-width="1.0667" d="M6.4 16h19.2M16 25.6v-19.2"></path>
</symbol>
<symbol id="shine" viewBox="0 0 32 32">
<path fill="#240532" style="fill: var(--color1, #240532)" d="M16 32c-0.032-8.826-7.183-15.97-16-15.97 8.836 0 16-7.177 16-16.030 0.032 8.826 7.183 15.97 16 15.97-8.836 0-16 7.177-16 16.030z"></path>
</symbol>
<symbol id="telegram" viewBox="0 0 32 32">
<path fill="#240532" style="fill: var(--color1, #240532)" d="M16 0c-8.832 0-16 7.168-16 16s7.168 16 16 16 16-7.168 16-16-7.168-16-16-16zM23.424 10.88c-0.24 2.528-1.28 8.672-1.808 11.505-0.224 1.2-0.672 1.6-1.088 1.648-0.928 0.080-1.632-0.608-2.528-1.2-1.408-0.928-2.208-1.504-3.568-2.4-1.584-1.040-0.56-1.616 0.352-2.544 0.24-0.24 4.336-3.968 4.416-4.304 0.005-0.021 0.007-0.044 0.007-0.068 0-0.085-0.033-0.163-0.087-0.22l0 0c-0.096-0.080-0.224-0.048-0.336-0.032-0.144 0.032-2.384 1.52-6.752 4.464-0.64 0.432-1.216 0.656-1.728 0.64-0.576-0.016-1.664-0.32-2.48-0.592-1.008-0.32-1.792-0.496-1.728-1.056 0.032-0.288 0.432-0.576 1.184-0.88 4.672-2.032 7.776-3.376 9.328-4.016 4.448-1.856 5.36-2.176 5.968-2.176 0.128 0 0.432 0.032 0.624 0.192 0.16 0.128 0.208 0.304 0.224 0.432-0.016 0.096 0.016 0.384 0 0.608z"></path>
</symbol>
<symbol id="checkbox-accept" viewBox="0 0 32 32">
<path fill="none" stroke="#240532" style="stroke: var(--color1, #240532)" stroke-linejoin="miter" stroke-linecap="round" stroke-miterlimit="4" stroke-width="2.6667" d="M2.667 17.333l9.333 10.667 17.333-25.333"></path>
</symbol>
<symbol id="gear" viewBox="0 0 32 32">
<path fill="#240532" style="fill: var(--color1, #240532)" d="M28.341 16c0-0.368-0.016-0.72-0.048-1.088l3.061-2.256c0.656-0.48 0.838-1.376 0.427-2.080l-3.077-5.168c-0.201-0.339-0.513-0.593-0.885-0.717l-0.011-0.003c-0.154-0.052-0.332-0.082-0.516-0.082-0.233 0-0.455 0.048-0.656 0.134l0.011-0.004-3.538 1.456c-0.608-0.416-1.251-0.784-1.925-1.088l-0.48-3.696c-0.096-0.8-0.805-1.408-1.627-1.408h-6.138c-0.838 0-1.547 0.608-1.643 1.408l-0.48 3.696c-0.674 0.304-1.315 0.672-1.925 1.088l-3.538-1.456c-0.19-0.083-0.411-0.131-0.643-0.131-0.598 0-1.122 0.319-1.41 0.795l-0.004 0.007-3.077 5.184c-0.138 0.23-0.219 0.507-0.219 0.803 0 0.522 0.252 0.985 0.642 1.273l0.004 0.003 3.061 2.256c-0.033 0.324-0.051 0.7-0.051 1.080s0.019 0.756 0.055 1.127l-0.004-0.047-3.061 2.256c-0.394 0.291-0.647 0.754-0.647 1.276 0 0.297 0.082 0.574 0.224 0.812l-0.004-0.007 3.077 5.168c0.411 0.704 1.301 0.992 2.058 0.672l3.538-1.456c0.608 0.416 1.251 0.784 1.925 1.088l0.478 3.696c0.098 0.8 0.806 1.408 1.629 1.408h6.138c0.822 0 1.53-0.608 1.629-1.408l0.477-3.696c0.675-0.304 1.317-0.672 1.926-1.088l3.536 1.456c0.758 0.32 1.648 0.032 2.058-0.672l3.078-5.168c0.137-0.23 0.218-0.507 0.218-0.803 0-0.522-0.253-0.986-0.643-1.274l-0.004-0.003-3.061-2.256c0.050-0.368 0.066-0.72 0.066-1.088zM16.066 21.6c-3.176 0-5.76-2.512-5.76-5.6s2.584-5.6 5.76-5.6 5.76 2.512 5.76 5.6-2.584 5.6-5.76 5.6z"></path>
</symbol>
</defs>
</svg>
